<?xml version="1.0" encoding="utf-8"?>
<!-- Generator: Adobe Illustrator 25.2.1, SVG Export Plug-In . SVG Version: 6.00 Build 0)  -->
<svg version="1.1" id="graphic" xmlns="http://www.w3.org/2000/svg" xmlns:xlink="http://www.w3.org/1999/xlink" x="0px" y="0px"
	 viewBox="0 0 1086.8 645.6" style="enable-background:new 0 0 1086.8 645.6;" xml:space="preserve">
<style type="text/css">
	.st0{fill:none;stroke:#878787;stroke-width:0.2835;stroke-miterlimit:10;}
	.st1{fill:none;stroke:#EEEEEE;stroke-width:1.5;}
	.st2{fill:#878787;}
	.st3{font-family:'Avenir-Book';}
	.st4{font-size:12.6px;}
	.st5{fill:none;stroke:#EEEEEE;stroke-width:1.5;stroke-linecap:square;}
	.st6{clip-path:url(#SVGID_2_);fill:#EEEEEE;}
	.st7{clip-path:url(#SVGID_4_);}
	.st8{fill:#BDE0DC;}
	.st9{clip-path:url(#SVGID_6_);}
	.st10{fill:#F9A26C;}
	.st11{fill:none;}
	.st12{font-family:'Avenir-Black';}
	.st13{font-size:16px;}
</style>
<g>
	<g transform="translate(0, 0)">
	</g>
</g>
<g id="areas">
</g>
<g id="lines">
</g>
<g id="lines-secondary">
</g>
<g id="stack-labels">
</g>
<g>
	<g transform="translate(0, 0)">
	</g>
</g>
<g>
	<g>
		<g>
			<g>
				<line class="st0" x1="66.5" y1="528.1" x2="1055.8" y2="528.1"/>
				<line class="st0" x1="66.5" y1="475.5" x2="1055.8" y2="475.5"/>
				<line class="st0" x1="66.5" y1="422.9" x2="1055.8" y2="422.9"/>
				<line class="st0" x1="66.5" y1="370.4" x2="1055.8" y2="370.4"/>
				<line class="st0" x1="66.5" y1="317.8" x2="1055.8" y2="317.8"/>
				<line class="st0" x1="66.5" y1="265.3" x2="1055.8" y2="265.3"/>
				<line class="st0" x1="66.5" y1="212.7" x2="1055.8" y2="212.7"/>
				<line class="st0" x1="66.5" y1="160.2" x2="1055.8" y2="160.2"/>
				<line class="st0" x1="66.5" y1="107.6" x2="1055.8" y2="107.6"/>
			</g>
		</g>
	</g>
</g>
<line class="st1" x1="78.3" y1="528.1" x2="78.3" y2="535.1"/>
<text transform="matrix(0.7071 -0.7071 0.7071 0.7071 50.6115 578.043)" class="st2 st3 st4">Vitacura</text>
<line class="st1" x1="101.9" y1="528.1" x2="101.9" y2="535.1"/>
<text transform="matrix(0.7071 -0.7071 0.7071 0.7071 62.5747 589.6343)" class="st2 st3 st4">Las Condes</text>
<line class="st1" x1="125.4" y1="528.1" x2="125.4" y2="535.1"/>
<text transform="matrix(0.7071 -0.7071 0.7071 0.7071 76.613 599.15)" class="st2 st3 st4">Lo Barnechea</text>
<line class="st1" x1="149" y1="528.1" x2="149" y2="535.1"/>
<text transform="matrix(0.7071 -0.7071 0.7071 0.7071 107.4287 591.8882)" class="st2 st3 st4">Providencia</text>
<line class="st1" x1="172.5" y1="528.1" x2="172.5" y2="535.1"/>
<text transform="matrix(0.7071 -0.7071 0.7071 0.7071 152.0175 570.8531)" class="st2 st3 st4">Ñuñoa</text>
<line class="st1" x1="196.1" y1="528.1" x2="196.1" y2="535.1"/>
<text transform="matrix(0.7071 -0.7071 0.7071 0.7071 168.132 578.2925)" class="st2 st3 st4">Santiago</text>
<line class="st1" x1="219.6" y1="528.1" x2="219.6" y2="535.1"/>
<text transform="matrix(0.7071 -0.7071 0.7071 0.7071 190.7421 579.2369)" class="st2 st3 st4">La Reina</text>
<line class="st1" x1="243.2" y1="528.1" x2="243.2" y2="535.1"/>
<text transform="matrix(0.7071 -0.7071 0.7071 0.7071 205.0122 588.5206)" class="st2 st3 st4">San Miguel</text>
<line class="st1" x1="266.7" y1="528.1" x2="266.7" y2="535.1"/>
<text transform="matrix(0.7071 -0.7071 0.7071 0.7071 248.0244 569.0626)" class="st2 st3 st4">Macul</text>
<line class="st1" x1="290.3" y1="528.1" x2="290.3" y2="535.1"/>
<text transform="matrix(0.7071 -0.7071 0.7071 0.7071 258.9629 581.6783)" class="st2 st3 st4">Quilicura</text>
<line class="st1" x1="313.8" y1="528.1" x2="313.8" y2="535.1"/>
<text transform="matrix(0.7071 -0.7071 0.7071 0.7071 272.4048 591.7901)" class="st2 st3 st4">San Joaquin</text>
<line class="st1" x1="431.6" y1="528.1" x2="431.6" y2="535.1"/>
<text transform="matrix(0.7071 -0.7071 0.7071 0.7071 411.8247 570.1407)" class="st2 st3 st4">Colina</text>
<line class="st1" x1="478.7" y1="528.1" x2="478.7" y2="535.1"/>
<text transform="matrix(0.7071 -0.7071 0.7071 0.7071 459.3423 569.731)" class="st2 st3 st4">Maipú</text>
<line class="st1" x1="525.8" y1="528.1" x2="525.8" y2="535.1"/>
<text transform="matrix(0.7071 -0.7071 0.7071 0.7071 497.7817 578.3995)" class="st2 st3 st4">Peñaflor</text>
<line class="st1" x1="549.4" y1="528.1" x2="549.4" y2="535.1"/>
<text transform="matrix(0.7071 -0.7071 0.7071 0.7071 527.8395 571.8956)" class="st2 st3 st4">Lampa</text>
<line class="st1" x1="572.9" y1="528.1" x2="572.9" y2="535.1"/>
<text transform="matrix(0.7071 -0.7071 0.7071 0.7071 541.4413 581.8477)" class="st2 st3 st4">Pudahuel</text>
<line class="st1" x1="643.6" y1="528.1" x2="643.6" y2="535.1"/>
<text transform="matrix(0.7071 -0.7071 0.7071 0.7071 615.4448 578.5064)" class="st2 st3 st4">Recoleta</text>
<line class="st1" x1="667.2" y1="528.1" x2="667.2" y2="535.1"/>
<text transform="matrix(0.7071 -0.7071 0.7071 0.7071 637.8139 579.6915)" class="st2 st3 st4">Malipilla</text>
<line class="st1" x1="737.8" y1="528.1" x2="737.8" y2="535.1"/>
<text transform="matrix(0.7071 -0.7071 0.7071 0.7071 713.0378 575.1295)" class="st2 st3 st4">Cerillos</text>
<line class="st1" x1="761.4" y1="528.1" x2="761.4" y2="535.1"/>
<text transform="matrix(0.7071 -0.7071 0.7071 0.7071 748.5746 563.1465)" class="st2 st3 st4">Buin</text>
<line class="st1" x1="808.5" y1="528.1" x2="808.5" y2="535.1"/>
<text transform="matrix(0.7071 -0.7071 0.7071 0.7071 778.9953 579.834)" class="st2 st3 st4">Conchalí</text>
<line class="st1" x1="832" y1="528.1" x2="832" y2="535.1"/>
<text transform="matrix(0.7071 -0.7071 0.7071 0.7071 813.3745 569.0089)" class="st2 st3 st4">Renca</text>
<line class="st1" x1="855.6" y1="528.1" x2="855.6" y2="535.1"/>
<text transform="matrix(0.7071 -0.7071 0.7071 0.7071 825.8808 580.0567)" class="st2 st3 st4">Lo Prado</text>
<line class="st1" x1="902.7" y1="528.1" x2="902.7" y2="535.1"/>
<text transform="matrix(0.7071 -0.7071 0.7071 0.7071 886.1926 566.8526)" class="st2 st3 st4">Paine</text>
<line class="st1" x1="337.4" y1="528.1" x2="337.4" y2="535.1"/>
<text transform="matrix(0.7071 -0.7071 0.7071 0.7071 277.9616 609.7872)" class="st2 st3 st4">Estación Central</text>
<line class="st1" x1="361" y1="528.1" x2="361" y2="535.1"/>
<text transform="matrix(0.7071 -0.7071 0.7071 0.7071 321.6245 589.6788)" class="st2 st3 st4">La Cisterna</text>
<line class="st1" x1="384.5" y1="528.1" x2="384.5" y2="535.1"/>
<text transform="matrix(0.7071 -0.7071 0.7071 0.7071 341.2666 593.5904)" class="st2 st3 st4">Huechuraba</text>
<line class="st1" x1="408.1" y1="528.1" x2="408.1" y2="535.1"/>
<text transform="matrix(0.7071 -0.7071 0.7071 0.7071 373.3921 585.0191)" class="st2 st3 st4">La Florida</text>
<line class="st1" x1="455.2" y1="528.1" x2="455.2" y2="535.1"/>
<text transform="matrix(0.7071 -0.7071 0.7071 0.7071 421.4443 584.0748)" class="st2 st3 st4">Peñalolén</text>
<line class="st1" x1="502.3" y1="528.1" x2="502.3" y2="535.1"/>
<text transform="matrix(0.7071 -0.7071 0.7071 0.7071 448.2746 604.3526)" class="st2 st3 st4">Independencia</text>
<line class="st1" x1="596.5" y1="528.1" x2="596.5" y2="535.1"/>
<text transform="matrix(0.7071 -0.7071 0.7071 0.7071 543.0432 603.7999)" class="st2 st3 st4">Quinta Normal</text>
<line class="st1" x1="620" y1="528.1" x2="620" y2="535.1"/>
<text transform="matrix(0.7071 -0.7071 0.7071 0.7071 567.4523 602.9449)" class="st2 st3 st4">Padre Hurtado</text>
<line class="st1" x1="690.7" y1="528.1" x2="690.7" y2="535.1"/>
<text transform="matrix(0.7071 -0.7071 0.7071 0.7071 658.3027 582.7564)" class="st2 st3 st4">Talagante</text>
<line class="st1" x1="714.3" y1="528.1" x2="714.3" y2="535.1"/>
<text transform="matrix(0.7071 -0.7071 0.7071 0.7071 666.1855 598.4278)" class="st2 st3 st4">San Bernardo</text>
<line class="st1" x1="784.9" y1="528.1" x2="784.9" y2="535.1"/>
<text transform="matrix(0.7071 -0.7071 0.7071 0.7071 709.7006 625.5748)" class="st2 st3 st4">Pedro Aguirre Cerda</text>
<line class="st1" x1="879.1" y1="528.1" x2="879.1" y2="535.1"/>
<text transform="matrix(0.7071 -0.7071 0.7071 0.7071 838.8947 590.5967)" class="st2 st3 st4">Puente Alto</text>
<line class="st1" x1="926.2" y1="528.1" x2="926.2" y2="535.1"/>
<text transform="matrix(0.7071 -0.7071 0.7071 0.7071 886.9919 589.6075)" class="st2 st3 st4">San Ramón</text>
<line class="st1" x1="949.8" y1="528.1" x2="949.8" y2="535.1"/>
<text transform="matrix(0.7071 -0.7071 0.7071 0.7071 917.1567 582.9971)" class="st2 st3 st4">Lo Espejo</text>
<line class="st1" x1="973.4" y1="528.1" x2="973.4" y2="535.1"/>
<text transform="matrix(0.7071 -0.7071 0.7071 0.7071 940.6752 583.0323)" class="st2 st3 st4">La Granja</text>
<line class="st1" x1="996.9" y1="528.1" x2="996.9" y2="535.1"/>
<text transform="matrix(0.7071 -0.7071 0.7071 0.7071 955.7206 591.5411)" class="st2 st3 st4">Cerro Navia</text>
<line class="st1" x1="1020.5" y1="528.1" x2="1020.5" y2="535.1"/>
<text transform="matrix(0.7071 -0.7071 0.7071 0.7071 987.2663 583.5494)" class="st2 st3 st4">El Bosque</text>
<line class="st1" x1="1044" y1="528.1" x2="1044" y2="535.1"/>
<text transform="matrix(0.7071 -0.7071 0.7071 0.7071 1007.3994 586.9703)" class="st2 st3 st4">La Pintana</text>
<g>
	<line class="st5" x1="66.5" y1="107.6" x2="66.5" y2="528.1"/>
</g>
<line class="st1" x1="66.5" y1="528.1" x2="59.5" y2="528.1"/>
<g>
	<text transform="matrix(1 0 0 1 49.7248 532.2504)" class="st2 st3 st4">0</text>
</g>
<line class="st1" x1="66.5" y1="107.6" x2="59.5" y2="107.6"/>
<g>
	<text transform="matrix(1 0 0 1 30.8248 111.779)" class="st2 st3 st4">8000</text>
</g>
<line class="st1" x1="66.5" y1="160.2" x2="59.5" y2="160.2"/>
<g>
	<text transform="matrix(1 0 0 1 30.8248 164.338)" class="st2 st3 st4">7000</text>
</g>
<line class="st1" x1="66.5" y1="212.7" x2="59.5" y2="212.7"/>
<g>
	<text transform="matrix(1 0 0 1 30.8248 216.8969)" class="st2 st3 st4">6000</text>
</g>
<line class="st1" x1="66.5" y1="265.3" x2="59.5" y2="265.3"/>
<g>
	<text transform="matrix(1 0 0 1 30.8248 269.4558)" class="st2 st3 st4">5000</text>
</g>
<line class="st1" x1="66.5" y1="317.9" x2="59.5" y2="317.9"/>
<g>
	<text transform="matrix(1 0 0 1 30.8248 322.0147)" class="st2 st3 st4">4000</text>
</g>
<line class="st1" x1="66.5" y1="370.4" x2="59.5" y2="370.4"/>
<g>
	<text transform="matrix(1 0 0 1 30.8248 374.5735)" class="st2 st3 st4">3000</text>
</g>
<line class="st1" x1="66.5" y1="423" x2="59.5" y2="423"/>
<g>
	<text transform="matrix(1 0 0 1 30.8248 427.1324)" class="st2 st3 st4">2000</text>
</g>
<line class="st1" x1="66.5" y1="475.5" x2="59.5" y2="475.5"/>
<g>
	<text transform="matrix(1 0 0 1 30.8248 479.6913)" class="st2 st3 st4">1000</text>
</g>
<g transform="translate(0, 0)">
	<g>
		<g>
			<g>
				<defs>
					<rect id="SVGID_1_" x="20.5" y="89.9" width="1045.8" height="530.5"/>
				</defs>
				<clipPath id="SVGID_2_">
					<use xlink:href="#SVGID_1_"  style="overflow:visible;"/>
				</clipPath>
				<path class="st6" d="M66.5,100.4L66.5,100.4L66.5,100.4z"/>
			</g>
		</g>
	</g>
</g>
<g>
	<g>
		<g>
			<defs>
				<rect id="SVGID_3_" x="20.5" y="89.9" width="1045.8" height="530.5"/>
			</defs>
			<clipPath id="SVGID_4_">
				<use xlink:href="#SVGID_3_"  style="overflow:visible;"/>
			</clipPath>
			<g transform="translate(0,0)" class="st7">
				<path id="point-0-0" class="st8" d="M71.3,150h7.1v378.1h-7.1V150z"/>
				<path id="point-0-1" class="st8" d="M94.8,147.3h7.1v380.8h-7.1V147.3z"/>
				<path id="point-0-2" class="st8" d="M118.4,181.3h7.1V528h-7.1V181.3z"/>
				<path id="point-0-3" class="st8" d="M141.9,139.3h7.1V528h-7.1V139.3z"/>
				<path id="point-0-4" class="st8" d="M165.5,201.3h7.1v326.8h-7.1V201.3z"/>
				<path id="point-0-5" class="st8" d="M189,220.4h7.1v307.7H189V220.4z"/>
				<path id="point-0-6" class="st8" d="M212.6,197.9h7.1v330.2h-7.1V197.9z"/>
				<path id="point-0-7" class="st8" d="M236.1,265.4h7.1V528h-7.1V265.4z"/>
				<path id="point-0-8" class="st8" d="M259.7,284.7h7.1v243.4h-7.1V284.7z"/>
				<path id="point-0-9" class="st8" d="M283.2,244.7h7.1V528h-7.1V244.7z"/>
				<path id="point-0-10" class="st8" d="M306.8,320.4h7.1v207.7h-7.1V320.4z"/>
				<path id="point-0-11" class="st8" d="M330.4,301h7.1v227.1h-7.1V301z"/>
				<path id="point-0-12" class="st8" d="M353.9,309h7.1v219.1h-7.1V309z"/>
				<path id="point-0-13" class="st8" d="M377.5,280.1h7.1V528h-7.1V280.1z"/>
				<path id="point-0-14" class="st8" d="M401,265.2h7.1v262.9H401V265.2z"/>
				<path id="point-0-15" class="st8" d="M424.6,260.9h7.1v267.2h-7.1V260.9z"/>
				<path id="point-0-16" class="st8" d="M448.1,504.3h7.1v23.8h-7.1V504.3z"/>
				<path id="point-0-17" class="st8" d="M471.7,259.4h7.1V528h-7.1V259.4z"/>
				<path id="point-0-18" class="st8" d="M495.2,344.4h7.1v183.7h-7.1V344.4z"/>
				<path id="point-0-19" class="st8" d="M518.8,292.5h7.1v235.6h-7.1V292.5z"/>
				<path id="point-0-20" class="st8" d="M542.3,281.9h7.1V528h-7.1V281.9z"/>
				<path id="point-0-21" class="st8" d="M565.9,282.6h7.1v245.5h-7.1V282.6z"/>
				<path id="point-0-22" class="st8" d="M589.4,321.1h7.1v207h-7.1V321.1z"/>
				<path id="point-0-23" class="st8" d="M613,324.3h7.1v203.8H613V324.3z"/>
				<path id="point-0-24" class="st8" d="M636.6,283.7h7.1V528h-7.1V283.7z"/>
				<path id="point-0-25" class="st8" d="M660.1,336.4h7.1V528h-7.1V336.4z"/>
				<path id="point-0-26" class="st8" d="M683.7,300.2h7.1V528h-7.1V300.2z"/>
				<path id="point-0-27" class="st8" d="M707.2,315.1h7.1v213h-7.1V315.1z"/>
				<path id="point-0-28" class="st8" d="M730.8,504.5h7.1v23.6h-7.1V504.5z"/>
				<path id="point-0-29" class="st8" d="M754.3,323.1h7.1V528h-7.1V323.1z"/>
				<path id="point-0-31" class="st8" d="M801.4,321.1h7.1v207h-7.1V321.1z"/>
				<path id="point-0-32" class="st8" d="M825,310.4h7.1v217.7H825V310.4z"/>
				<path id="point-0-33" class="st8" d="M848.5,343.1h7.1v185h-7.1V343.1z"/>
				<path id="point-0-34" class="st8" d="M872.1,250.7h7.1v277.4h-7.1V250.7z"/>
				<path id="point-0-35" class="st8" d="M895.7,290.6h7.1v237.5h-7.1V290.6z"/>
				<path id="point-0-36" class="st8" d="M919.2,338.3h7.1v189.8h-7.1V338.3z"/>
				<path id="point-0-37" class="st8" d="M942.8,351.9h7.1v176.2h-7.1V351.9z"/>
				<path id="point-0-38" class="st8" d="M966.3,322.4h7.1v205.7h-7.1V322.4z"/>
				<path id="point-0-39" class="st8" d="M989.9,337.2h7.1v190.9h-7.1V337.2z"/>
				<path id="point-0-40" class="st8" d="M1013.4,330h7.1v198h-7.1V330z"/>
				<path id="point-0-41" class="st8" d="M1037,339.5h7.1v188.6h-7.1V339.5z"/>
			</g>
		</g>
	</g>
</g>
<g>
	<g>
		<defs>
			<rect id="SVGID_5_" x="20.5" y="89.9" width="1045.8" height="530.5"/>
		</defs>
		<clipPath id="SVGID_6_">
			<use xlink:href="#SVGID_5_"  style="overflow:visible;"/>
		</clipPath>
		<g transform="translate(0,0)" class="st9">
			<path id="point-1-0" class="st10" d="M78.3,128.4h7.1v399.7h-7.1V128.4z"/>
			<path id="point-1-1" class="st10" d="M101.9,156.7h7.1v371.4h-7.1V156.7z"/>
			<path id="point-1-2" class="st10" d="M125.4,163.6h7.1V528h-7.1V163.6z"/>
			<path id="point-1-3" class="st10" d="M149,166.4h7.1v361.7H149V166.4z"/>
			<path id="point-1-4" class="st10" d="M172.5,493h7.1v35.1h-7.1V493z"/>
			<path id="point-1-5" class="st10" d="M196.1,205.7h7.1V528h-7.1V205.7z"/>
			<path id="point-1-6" class="st10" d="M219.6,212.1h7.1v316h-7.1V212.1z"/>
			<path id="point-1-7" class="st10" d="M243.2,220.3h7.1V528h-7.1V220.3z"/>
			<path id="point-1-8" class="st10" d="M266.8,499.9h7.1V528h-7.1V499.9z"/>
			<path id="point-1-9" class="st10" d="M290.3,249.7h7.1v278.4h-7.1V249.7z"/>
			<path id="point-1-10" class="st10" d="M313.9,258h7.1v270.1h-7.1V258z"/>
			<path id="point-1-11" class="st10" d="M337.4,261.6h7.1V528h-7.1V261.6z"/>
			<path id="point-1-12" class="st10" d="M361,262.7h7.1v265.4H361V262.7z"/>
			<path id="point-1-13" class="st10" d="M384.5,265.1h7.1v263h-7.1V265.1z"/>
			<path id="point-1-14" class="st10" d="M408.1,265.6h7.1V528h-7.1V265.6z"/>
			<path id="point-1-15" class="st10" d="M431.6,265.9h7.1v262.2h-7.1V265.9z"/>
			<path id="point-1-16" class="st10" d="M455.2,268.8h7.1v259.3h-7.1V268.8z"/>
			<path id="point-1-17" class="st10" d="M478.7,268.8h7.1V528h-7.1V268.8z"/>
			<path id="point-1-18" class="st10" d="M502.3,278h7.1v250h-7.1V278z"/>
			<path id="point-1-19" class="st10" d="M525.9,281h7.1v247.1h-7.1V281z"/>
			<path id="point-1-20" class="st10" d="M549.4,283.2h7.1v244.9h-7.1V283.2z"/>
			<path id="point-1-21" class="st10" d="M573,285h7.1v243.1H573V285z"/>
			<path id="point-1-22" class="st10" d="M596.5,291.4h7.1V528h-7.1V291.4z"/>
			<path id="point-1-23" class="st10" d="M620.1,525.7h7.1v2.4h-7.1V525.7z"/>
			<path id="point-1-24" class="st10" d="M643.6,291.7h7.1v236.4h-7.1V291.7z"/>
			<path id="point-1-25" class="st10" d="M667.2,292.8h7.1v235.3h-7.1V292.8z"/>
			<path id="point-1-26" class="st10" d="M690.7,295h7.1v233h-7.1V295z"/>
			<path id="point-1-27" class="st10" d="M714.3,295.3h7.1v232.8h-7.1V295.3z"/>
			<path id="point-1-28" class="st10" d="M737.8,295.3h7.1V528h-7.1V295.3z"/>
			<path id="point-1-29" class="st10" d="M761.4,296h7.1v232.1h-7.1V296z"/>
			<path id="point-1-30" class="st10" d="M784.9,296.1h7.1v232h-7.1V296.1z"/>
			<path id="point-1-31" class="st10" d="M808.5,302.7h7.1v225.4h-7.1V302.7z"/>
			<path id="point-1-32" class="st10" d="M832.1,305h7.1v223.1h-7.1V305z"/>
			<path id="point-1-33" class="st10" d="M855.6,525.9h7.1v2.2h-7.1V525.9z"/>
			<path id="point-1-34" class="st10" d="M879.2,315.3h7.1v212.8h-7.1V315.3z"/>
			<path id="point-1-35" class="st10" d="M902.7,317.4h7.1v210.7h-7.1V317.4z"/>
			<path id="point-1-36" class="st10" d="M926.3,318.1h7.1V528h-7.1V318.1z"/>
			<path id="point-1-37" class="st10" d="M949.8,327.1h7.1v201h-7.1V327.1z"/>
			<path id="point-1-38" class="st10" d="M973.4,508h7.1v20.1h-7.1V508z"/>
			<path id="point-1-39" class="st10" d="M996.9,508.4h7.1v19.7h-7.1V508.4z"/>
			<path id="point-1-40" class="st10" d="M1020.5,509.2h7.1V528h-7.1V509.2z"/>
			<path id="point-1-41" class="st10" d="M1044,363.9h7.1V528h-7.1V363.9z"/>
		</g>
	</g>
</g>
<g>
	<line class="st5" x1="66.5" y1="528.1" x2="1055.8" y2="528.1"/>
</g>
<g>
	<path class="st8" d="M41.8,77.3h-9.1c-0.8,0-1.4-0.6-1.4-1.4v-9.1c0-0.8,0.6-1.4,1.4-1.4h9.1c0.8,0,1.4,0.6,1.4,1.4v9.1
		C43.2,76.7,42.6,77.3,41.8,77.3z"/>
	<g>
		<g>
			<path class="st2" d="M52.1,75.8h-0.9v-8.9h0.9V75.8z"/>
			<path class="st2" d="M61.9,74.4c-0.2,0.2-0.3,0.4-0.6,0.6s-0.5,0.4-0.8,0.5s-0.6,0.3-0.9,0.3c-0.3,0.1-0.7,0.1-1.1,0.1
				c-0.7,0-1.3-0.1-1.8-0.4s-1.1-0.6-1.5-1s-0.7-0.9-1-1.5s-0.4-1.2-0.4-1.9c0-0.7,0.1-1.3,0.4-1.9c0.2-0.6,0.6-1.1,1-1.5
				s0.9-0.7,1.5-1c0.6-0.2,1.2-0.4,1.8-0.4s1.1,0.1,1.7,0.3c0.6,0.2,1,0.6,1.4,1.1l-0.8,0.6c-0.1-0.1-0.2-0.3-0.4-0.4
				s-0.3-0.3-0.5-0.4s-0.4-0.2-0.7-0.3c-0.2-0.1-0.5-0.1-0.7-0.1c-0.6,0-1.1,0.1-1.5,0.3s-0.8,0.5-1.2,0.8c-0.3,0.4-0.6,0.8-0.7,1.2
				c-0.2,0.5-0.3,1-0.3,1.5s0.1,1,0.3,1.5s0.4,0.9,0.7,1.2c0.3,0.4,0.7,0.6,1.2,0.8s1,0.3,1.5,0.3c0.2,0,0.5,0,0.7-0.1
				c0.2,0,0.5-0.1,0.7-0.2s0.4-0.2,0.6-0.4c0.2-0.2,0.4-0.4,0.5-0.6L61.9,74.4z"/>
			<path class="st2" d="M66,74.5L66,74.5l2.9-7.6h1l-3.5,8.9h-0.9l-3.4-8.9h1L66,74.5z"/>
			<path class="st2" d="M77.5,72.5c0,0.4,0,0.8-0.1,1.2c-0.1,0.4-0.3,0.8-0.5,1.2c-0.2,0.4-0.6,0.6-1,0.9c-0.4,0.2-1,0.3-1.6,0.3
				c-0.7,0-1.2-0.1-1.6-0.3s-0.8-0.5-1-0.9s-0.4-0.7-0.5-1.2c-0.1-0.4-0.1-0.8-0.1-1.2v-5.6H72v5.5c0,0.4,0,0.8,0.1,1.1
				c0.1,0.3,0.2,0.6,0.3,0.8c0.1,0.2,0.3,0.4,0.5,0.5s0.3,0.2,0.5,0.3s0.3,0.1,0.5,0.1s0.3,0,0.4,0s0.2,0,0.4,0
				c0.2,0,0.3-0.1,0.5-0.1c0.2-0.1,0.3-0.2,0.5-0.3c0.2-0.1,0.3-0.3,0.5-0.5s0.2-0.5,0.3-0.8s0.1-0.7,0.1-1.1v-5.5h0.9L77.5,72.5
				L77.5,72.5z"/>
			<path class="st2" d="M88.3,75.8h-5.7v-1l3.6-3.6c0.1-0.1,0.3-0.3,0.4-0.4s0.3-0.3,0.4-0.5s0.2-0.3,0.3-0.5
				c0.1-0.2,0.1-0.4,0.1-0.6s0-0.5-0.1-0.7S87,68.1,86.8,68s-0.3-0.2-0.6-0.3s-0.4-0.1-0.7-0.1c-0.5,0-0.8,0.1-1.2,0.4
				c-0.3,0.3-0.5,0.6-0.6,1l-1-0.1c0.1-0.7,0.4-1.2,0.9-1.6s1.1-0.6,1.8-0.6c0.4,0,0.7,0,1,0.1s0.6,0.2,0.9,0.4
				c0.2,0.2,0.4,0.4,0.6,0.7c0.1,0.3,0.2,0.6,0.2,1c0,0.3-0.1,0.7-0.2,0.9s-0.2,0.6-0.4,0.8c-0.2,0.3-0.4,0.5-0.6,0.7
				s-0.4,0.4-0.7,0.7l-2.6,3h4.7C88.3,75,88.3,75.8,88.3,75.8z"/>
			<path class="st2" d="M92.5,66.8c0.6,0,1.2,0.1,1.5,0.4c0.4,0.3,0.7,0.7,0.9,1.1c0.2,0.5,0.4,1,0.4,1.5c0.1,0.5,0.1,1.1,0.1,1.6
				s0,1-0.1,1.6c-0.1,0.5-0.2,1-0.4,1.5c-0.2,0.5-0.5,0.8-0.9,1.1c-0.4,0.3-0.9,0.4-1.5,0.4s-1.2-0.1-1.5-0.4
				c-0.4-0.3-0.7-0.7-0.9-1.1c-0.2-0.5-0.4-1-0.4-1.5s-0.1-1.1-0.1-1.6s0-1,0.1-1.6c0.1-0.5,0.2-1,0.4-1.5c0.2-0.5,0.5-0.8,0.9-1.1
				C91.4,66.9,91.9,66.8,92.5,66.8z M92.5,67.6c-0.5,0-0.9,0.1-1.2,0.4c-0.3,0.3-0.5,0.6-0.6,1s-0.2,0.8-0.3,1.2
				c0,0.4-0.1,0.8-0.1,1.2c0,0.4,0,0.7,0.1,1.2c0,0.4,0.1,0.8,0.3,1.2c0.1,0.4,0.4,0.7,0.6,1c0.3,0.3,0.7,0.4,1.2,0.4
				s0.9-0.1,1.2-0.4c0.3-0.3,0.5-0.6,0.6-1s0.2-0.8,0.3-1.2c0-0.4,0.1-0.8,0.1-1.2c0-0.4,0-0.7-0.1-1.2c0-0.4-0.1-0.8-0.3-1.2
				c-0.1-0.4-0.4-0.7-0.6-1C93.4,67.7,93,67.6,92.5,67.6z"/>
			<path class="st2" d="M100.4,75.8h-0.9V68l-1.6,1.4l-0.6-0.7l2.3-1.9h0.8C100.4,66.8,100.4,75.8,100.4,75.8z"/>
			<path class="st2" d="M107.4,75.8h-0.9V68l-1.6,1.4l-0.6-0.7l2.3-1.9h0.8C107.4,66.8,107.4,75.8,107.4,75.8z"/>
		</g>
	</g>
</g>
<g>
	<path class="st10" d="M137.9,77.3h-9.1c-0.8,0-1.4-0.6-1.4-1.4v-9.1c0-0.8,0.6-1.4,1.4-1.4h9.1c0.8,0,1.4,0.6,1.4,1.4v9.1
		C139.3,76.7,138.7,77.3,137.9,77.3z"/>
	<g>
		<g>
			<path class="st2" d="M148.2,75.8h-0.9v-8.9h0.9V75.8z"/>
			<path class="st2" d="M158,74.4c-0.2,0.2-0.3,0.4-0.6,0.6s-0.5,0.4-0.8,0.5s-0.6,0.3-0.9,0.3c-0.3,0.1-0.7,0.1-1.1,0.1
				c-0.7,0-1.3-0.1-1.8-0.4s-1.1-0.6-1.5-1s-0.7-0.9-1-1.5s-0.4-1.2-0.4-1.9c0-0.7,0.1-1.3,0.4-1.9c0.2-0.6,0.6-1.1,1-1.5
				s0.9-0.7,1.5-1c0.6-0.2,1.2-0.4,1.8-0.4s1.1,0.1,1.7,0.3c0.6,0.2,1,0.6,1.4,1.1l-0.8,0.6c-0.1-0.1-0.2-0.3-0.4-0.4
				s-0.3-0.3-0.5-0.4s-0.4-0.2-0.7-0.3c-0.2-0.1-0.5-0.1-0.7-0.1c-0.6,0-1.1,0.1-1.5,0.3s-0.8,0.5-1.2,0.8c-0.3,0.4-0.6,0.8-0.7,1.2
				c-0.2,0.5-0.3,1-0.3,1.5s0.1,1,0.3,1.5s0.4,0.9,0.7,1.2c0.3,0.4,0.7,0.6,1.2,0.8s1,0.3,1.5,0.3c0.2,0,0.5,0,0.7-0.1
				c0.2,0,0.5-0.1,0.7-0.2s0.4-0.2,0.6-0.4c0.2-0.2,0.4-0.4,0.5-0.6L158,74.4z"/>
			<path class="st2" d="M162.1,74.5L162.1,74.5l2.9-7.6h1l-3.5,8.9h-0.9l-3.4-8.9h1L162.1,74.5z"/>
			<path class="st2" d="M173.6,72.5c0,0.4,0,0.8-0.1,1.2c-0.1,0.4-0.3,0.8-0.5,1.2c-0.2,0.4-0.6,0.6-1,0.9c-0.4,0.2-1,0.3-1.6,0.3
				c-0.7,0-1.2-0.1-1.6-0.3s-0.8-0.5-1-0.9s-0.4-0.7-0.5-1.2c-0.1-0.4-0.1-0.8-0.1-1.2v-5.6h0.9v5.5c0,0.4,0,0.8,0.1,1.1
				c0.1,0.3,0.2,0.6,0.3,0.8c0.1,0.2,0.3,0.4,0.5,0.5s0.3,0.2,0.5,0.3s0.3,0.1,0.5,0.1s0.3,0,0.4,0c0.1,0,0.2,0,0.4,0
				s0.3-0.1,0.5-0.1c0.2-0.1,0.3-0.2,0.5-0.3c0.2-0.1,0.3-0.3,0.5-0.5s0.2-0.5,0.3-0.8s0.1-0.7,0.1-1.1v-5.5h0.9L173.6,72.5
				L173.6,72.5z"/>
			<path class="st2" d="M184.4,75.8h-5.7v-1l3.6-3.6c0.1-0.1,0.3-0.3,0.4-0.4s0.3-0.3,0.4-0.5c0.1-0.2,0.2-0.3,0.3-0.5
				s0.1-0.4,0.1-0.6s0-0.5-0.1-0.7s-0.2-0.4-0.4-0.5s-0.3-0.2-0.6-0.3s-0.4-0.1-0.7-0.1c-0.5,0-0.8,0.1-1.2,0.4
				c-0.3,0.3-0.5,0.6-0.6,1l-1-0.1c0.1-0.7,0.4-1.2,0.9-1.6s1.1-0.6,1.8-0.6c0.4,0,0.7,0,1,0.1s0.6,0.2,0.9,0.4
				c0.2,0.2,0.4,0.4,0.6,0.7c0.1,0.3,0.2,0.6,0.2,1c0,0.3-0.1,0.7-0.2,0.9s-0.2,0.6-0.4,0.8c-0.2,0.3-0.4,0.5-0.6,0.7
				c-0.2,0.2-0.4,0.4-0.7,0.7l-2.8,2.8h4.7v1H184.4z"/>
			<path class="st2" d="M188.7,66.8c0.6,0,1.2,0.1,1.5,0.4c0.4,0.3,0.7,0.7,0.9,1.1c0.2,0.5,0.4,1,0.4,1.5c0.1,0.5,0.1,1.1,0.1,1.6
				s0,1-0.1,1.6c-0.1,0.5-0.2,1-0.4,1.5s-0.5,0.8-0.9,1.1c-0.4,0.3-0.9,0.4-1.5,0.4s-1.2-0.1-1.5-0.4c-0.4-0.3-0.7-0.7-0.9-1.1
				c-0.2-0.5-0.4-1-0.4-1.5s-0.1-1.1-0.1-1.6s0-1,0.1-1.6c0.1-0.5,0.2-1,0.4-1.5s0.5-0.8,0.9-1.1C187.5,66.9,188,66.8,188.7,66.8z
				 M188.7,67.6c-0.5,0-0.9,0.1-1.2,0.4s-0.5,0.6-0.6,1s-0.2,0.8-0.3,1.2c0,0.4-0.1,0.8-0.1,1.2c0,0.4,0,0.7,0.1,1.2
				c0,0.4,0.1,0.8,0.3,1.2c0.1,0.4,0.4,0.7,0.6,1c0.3,0.3,0.7,0.4,1.2,0.4s0.9-0.1,1.2-0.4s0.5-0.6,0.6-1s0.2-0.8,0.3-1.2
				c0-0.4,0.1-0.8,0.1-1.2c0-0.4,0-0.7-0.1-1.2c0-0.4-0.1-0.8-0.3-1.2c-0.1-0.4-0.4-0.7-0.6-1C189.5,67.7,189.2,67.6,188.7,67.6z"/>
			<path class="st2" d="M198.5,75.8h-5.7v-1l3.6-3.6c0.1-0.1,0.3-0.3,0.4-0.4s0.3-0.3,0.4-0.5c0.1-0.2,0.2-0.3,0.3-0.5
				s0.1-0.4,0.1-0.6s0-0.5-0.1-0.7s-0.2-0.4-0.4-0.5s-0.3-0.2-0.6-0.3s-0.4-0.1-0.7-0.1c-0.5,0-0.8,0.1-1.2,0.4
				c-0.3,0.3-0.5,0.6-0.6,1l-1-0.1c0.1-0.7,0.4-1.2,0.9-1.6s1.1-0.6,1.8-0.6c0.4,0,0.7,0,1,0.1s0.6,0.2,0.9,0.4
				c0.2,0.2,0.4,0.4,0.6,0.7c0.1,0.3,0.2,0.6,0.2,1c0,0.3-0.1,0.7-0.2,0.9s-0.2,0.6-0.4,0.8c-0.2,0.3-0.4,0.5-0.6,0.7
				c-0.2,0.2-0.4,0.4-0.7,0.7l-2.8,2.8h4.7v1H198.5z"/>
			<path class="st2" d="M202.7,66.8c0.6,0,1.2,0.1,1.5,0.4c0.4,0.3,0.7,0.7,0.9,1.1c0.2,0.5,0.4,1,0.4,1.5c0.1,0.5,0.1,1.1,0.1,1.6
				s0,1-0.1,1.6c-0.1,0.5-0.2,1-0.4,1.5s-0.5,0.8-0.9,1.1c-0.4,0.3-0.9,0.4-1.5,0.4s-1.2-0.1-1.5-0.4c-0.4-0.3-0.7-0.7-0.9-1.1
				c-0.2-0.5-0.4-1-0.4-1.5s-0.1-1.1-0.1-1.6s0-1,0.1-1.6c0.1-0.5,0.2-1,0.4-1.5s0.5-0.8,0.9-1.1C201.5,66.9,202,66.8,202.7,66.8z
				 M202.7,67.6c-0.5,0-0.9,0.1-1.2,0.4s-0.5,0.6-0.6,1s-0.2,0.8-0.3,1.2c0,0.4-0.1,0.8-0.1,1.2c0,0.4,0,0.7,0.1,1.2
				c0,0.4,0.1,0.8,0.3,1.2c0.1,0.4,0.4,0.7,0.6,1c0.3,0.3,0.7,0.4,1.2,0.4s0.9-0.1,1.2-0.4s0.5-0.6,0.6-1s0.2-0.8,0.3-1.2
				c0-0.4,0.1-0.8,0.1-1.2c0-0.4,0-0.7-0.1-1.2c0-0.4-0.1-0.8-0.3-1.2c-0.1-0.4-0.4-0.7-0.6-1C203.6,67.7,203.2,67.6,202.7,67.6z"/>
		</g>
	</g>
</g>
<rect x="30.8" y="35.1" class="st11" width="354.2" height="17.7"/>
<text transform="matrix(1 0 0 1 30.8247 47.1934)" class="st2 st12 st13">Comparación Índice de Calidad de Vida Urbana RM</text>
</svg>
